<mxfile host="app.diagrams.net" modified="2023-12-10T15:13:55.446Z" agent="Mozilla/5.0 (Macintosh; Intel Mac OS X 10_15_7) AppleWebKit/537.36 (KHTML, like Gecko) Chrome/119.0.0.0 Safari/537.36" etag="CCQCut3Q9ppZHTqFcaHy" version="22.1.7" type="device">
  <diagram name="Page-1" id="kBRWjHT8D15hN09KAYur">
    <mxGraphModel dx="137" dy="78" grid="1" gridSize="10" guides="1" tooltips="1" connect="1" arrows="1" fold="1" page="1" pageScale="1" pageWidth="827" pageHeight="1169" math="0" shadow="0">
      <root>
        <mxCell id="0" />
        <mxCell id="1" parent="0" />
        <mxCell id="S-kwV-OTgZimPdCmhhHR-179" value="" style="rounded=0;whiteSpace=wrap;html=1;fillColor=#CCCCCC;" vertex="1" parent="1">
          <mxGeometry x="1032" y="715" width="600" height="600" as="geometry" />
        </mxCell>
        <mxCell id="S-kwV-OTgZimPdCmhhHR-181" value="" style="rounded=0;whiteSpace=wrap;html=1;" vertex="1" parent="1">
          <mxGeometry x="1428" y="1090" width="200" height="180" as="geometry" />
        </mxCell>
        <mxCell id="S-kwV-OTgZimPdCmhhHR-40" value="" style="rounded=0;whiteSpace=wrap;html=1;fillColor=#f5f5f5;fontColor=#333333;strokeColor=#666666;" vertex="1" parent="1">
          <mxGeometry x="350" y="810" width="600" height="5" as="geometry" />
        </mxCell>
        <mxCell id="S-kwV-OTgZimPdCmhhHR-71" value="" style="rounded=0;whiteSpace=wrap;html=1;fillColor=#f5f5f5;fontColor=#333333;strokeColor=#666666;" vertex="1" parent="1">
          <mxGeometry x="350" y="970" width="600" height="5" as="geometry" />
        </mxCell>
        <mxCell id="S-kwV-OTgZimPdCmhhHR-41" value="" style="rounded=0;whiteSpace=wrap;html=1;direction=south;fillColor=#f5f5f5;fontColor=#333333;strokeColor=#666666;" vertex="1" parent="1">
          <mxGeometry x="750" y="650" width="5" height="160" as="geometry" />
        </mxCell>
        <mxCell id="S-kwV-OTgZimPdCmhhHR-1" value="" style="rounded=0;whiteSpace=wrap;html=1;" vertex="1" parent="1">
          <mxGeometry x="350" y="250" width="600" height="10" as="geometry" />
        </mxCell>
        <mxCell id="S-kwV-OTgZimPdCmhhHR-2" value="" style="rounded=0;whiteSpace=wrap;html=1;" vertex="1" parent="1">
          <mxGeometry x="750" y="260" width="12" height="300" as="geometry" />
        </mxCell>
        <mxCell id="S-kwV-OTgZimPdCmhhHR-3" value="" style="rounded=0;whiteSpace=wrap;html=1;fillColor=#000000;fontColor=#333333;strokeColor=#666666;fillStyle=solid;gradientColor=none;" vertex="1" parent="1">
          <mxGeometry x="350" y="230" width="4" height="7.62" as="geometry" />
        </mxCell>
        <mxCell id="S-kwV-OTgZimPdCmhhHR-5" value="" style="rounded=0;whiteSpace=wrap;html=1;" vertex="1" parent="1">
          <mxGeometry x="940" y="235" width="10" height="15" as="geometry" />
        </mxCell>
        <mxCell id="S-kwV-OTgZimPdCmhhHR-7" value="" style="endArrow=none;html=1;rounded=0;entryX=0;entryY=0;entryDx=0;entryDy=0;exitX=0;exitY=0;exitDx=0;exitDy=0;" edge="1" parent="1" source="S-kwV-OTgZimPdCmhhHR-136" target="S-kwV-OTgZimPdCmhhHR-5">
          <mxGeometry width="50" height="50" relative="1" as="geometry">
            <mxPoint x="580" y="320" as="sourcePoint" />
            <mxPoint x="630" y="270" as="targetPoint" />
          </mxGeometry>
        </mxCell>
        <mxCell id="S-kwV-OTgZimPdCmhhHR-10" value="" style="rounded=0;whiteSpace=wrap;html=1;" vertex="1" parent="1">
          <mxGeometry x="480" y="236.5" width="4" height="13.5" as="geometry" />
        </mxCell>
        <mxCell id="S-kwV-OTgZimPdCmhhHR-15" value="" style="endArrow=none;html=1;rounded=0;exitX=1;exitY=0;exitDx=0;exitDy=0;entryX=1;entryY=0;entryDx=0;entryDy=0;" edge="1" parent="1" source="S-kwV-OTgZimPdCmhhHR-3" target="S-kwV-OTgZimPdCmhhHR-121">
          <mxGeometry width="50" height="50" relative="1" as="geometry">
            <mxPoint x="360" y="230" as="sourcePoint" />
            <mxPoint x="656.6199999999999" y="245" as="targetPoint" />
          </mxGeometry>
        </mxCell>
        <mxCell id="S-kwV-OTgZimPdCmhhHR-17" value="" style="rounded=0;whiteSpace=wrap;html=1;" vertex="1" parent="1">
          <mxGeometry x="350" y="238" width="4" height="12.38" as="geometry" />
        </mxCell>
        <mxCell id="S-kwV-OTgZimPdCmhhHR-18" value="" style="endArrow=baseDash;startArrow=baseDash;html=1;rounded=0;startFill=0;endFill=0;" edge="1" parent="1">
          <mxGeometry width="50" height="50" relative="1" as="geometry">
            <mxPoint x="340" y="250" as="sourcePoint" />
            <mxPoint x="340" y="240" as="targetPoint" />
          </mxGeometry>
        </mxCell>
        <mxCell id="S-kwV-OTgZimPdCmhhHR-20" value="&lt;font style=&quot;font-size: 5px;&quot;&gt;12,38 cm&lt;/font&gt;" style="edgeLabel;html=1;align=center;verticalAlign=middle;resizable=0;points=[];" vertex="1" connectable="0" parent="S-kwV-OTgZimPdCmhhHR-18">
          <mxGeometry x="-0.0429" y="1" relative="1" as="geometry">
            <mxPoint x="-19" y="-3" as="offset" />
          </mxGeometry>
        </mxCell>
        <mxCell id="S-kwV-OTgZimPdCmhhHR-19" value="" style="endArrow=baseDash;startArrow=baseDash;html=1;rounded=0;startFill=0;endFill=0;fontStyle=1" edge="1" parent="1">
          <mxGeometry width="50" height="50" relative="1" as="geometry">
            <mxPoint x="330" y="240" as="sourcePoint" />
            <mxPoint x="330" y="230" as="targetPoint" />
          </mxGeometry>
        </mxCell>
        <mxCell id="S-kwV-OTgZimPdCmhhHR-21" value="&lt;font style=&quot;font-size: 5px;&quot;&gt;7,62 cm&lt;/font&gt;" style="edgeLabel;html=1;align=center;verticalAlign=middle;resizable=0;points=[];" vertex="1" connectable="0" parent="1">
          <mxGeometry x="310" y="239.99714285714282" as="geometry">
            <mxPoint y="-6" as="offset" />
          </mxGeometry>
        </mxCell>
        <mxCell id="S-kwV-OTgZimPdCmhhHR-23" value="" style="rounded=0;whiteSpace=wrap;html=1;fillColor=#000000;" vertex="1" parent="1">
          <mxGeometry x="480" y="237.38" width="4" height="7.62" as="geometry" />
        </mxCell>
        <mxCell id="S-kwV-OTgZimPdCmhhHR-24" value="" style="rounded=0;whiteSpace=wrap;html=1;fillColor=#000000;" vertex="1" parent="1">
          <mxGeometry x="610" y="242.76" width="4" height="7.62" as="geometry" />
        </mxCell>
        <mxCell id="S-kwV-OTgZimPdCmhhHR-30" value="" style="endArrow=baseDash;startArrow=baseDash;html=1;rounded=0;startFill=0;endFill=0;fontStyle=1" edge="1" parent="1">
          <mxGeometry width="50" height="50" relative="1" as="geometry">
            <mxPoint x="340" y="250" as="sourcePoint" />
            <mxPoint x="340" y="240" as="targetPoint" />
          </mxGeometry>
        </mxCell>
        <mxCell id="S-kwV-OTgZimPdCmhhHR-31" value="" style="endArrow=baseDash;startArrow=baseDash;html=1;rounded=0;startFill=0;endFill=0;fontStyle=1" edge="1" parent="1">
          <mxGeometry width="50" height="50" relative="1" as="geometry">
            <mxPoint x="470" y="246.5" as="sourcePoint" />
            <mxPoint x="470" y="236.5" as="targetPoint" />
          </mxGeometry>
        </mxCell>
        <mxCell id="S-kwV-OTgZimPdCmhhHR-32" value="&lt;font style=&quot;font-size: 5px;&quot;&gt;7,62 cm&lt;/font&gt;" style="edgeLabel;html=1;align=center;verticalAlign=middle;resizable=0;points=[];" vertex="1" connectable="0" parent="1">
          <mxGeometry x="450" y="247.49714285714282" as="geometry">
            <mxPoint y="-6" as="offset" />
          </mxGeometry>
        </mxCell>
        <mxCell id="S-kwV-OTgZimPdCmhhHR-36" value="" style="endArrow=baseDash;startArrow=baseDash;html=1;rounded=0;startFill=0;endFill=0;fontStyle=1;entryX=0.25;entryY=-0.059;entryDx=0;entryDy=0;entryPerimeter=0;" edge="1" parent="1" target="S-kwV-OTgZimPdCmhhHR-1">
          <mxGeometry width="50" height="50" relative="1" as="geometry">
            <mxPoint x="500" y="246.5" as="sourcePoint" />
            <mxPoint x="500" y="248.5" as="targetPoint" />
          </mxGeometry>
        </mxCell>
        <mxCell id="S-kwV-OTgZimPdCmhhHR-37" value="&lt;font style=&quot;font-size: 6px;&quot;&gt;5.88 cm&lt;/font&gt;" style="text;html=1;strokeColor=none;fillColor=none;align=center;verticalAlign=middle;whiteSpace=wrap;rounded=0;fontSize=11;" vertex="1" parent="1">
          <mxGeometry x="490" y="230" width="60" height="30" as="geometry" />
        </mxCell>
        <mxCell id="S-kwV-OTgZimPdCmhhHR-38" value="" style="rounded=0;whiteSpace=wrap;html=1;fillColor=#000000;fontColor=#333333;strokeColor=#666666;fillStyle=solid;gradientColor=none;" vertex="1" parent="1">
          <mxGeometry x="880" y="241.19" width="10" height="7.62" as="geometry" />
        </mxCell>
        <mxCell id="S-kwV-OTgZimPdCmhhHR-42" value="" style="endArrow=baseDash;startArrow=baseDash;html=1;rounded=0;exitX=1.035;exitY=0.068;exitDx=0;exitDy=0;exitPerimeter=0;startFill=0;endFill=0;" edge="1" parent="1" source="S-kwV-OTgZimPdCmhhHR-2">
          <mxGeometry width="50" height="50" relative="1" as="geometry">
            <mxPoint x="900" y="320" as="sourcePoint" />
            <mxPoint x="880" y="280" as="targetPoint" />
          </mxGeometry>
        </mxCell>
        <mxCell id="S-kwV-OTgZimPdCmhhHR-43" value="1m" style="edgeLabel;html=1;align=center;verticalAlign=middle;resizable=0;points=[];" vertex="1" connectable="0" parent="S-kwV-OTgZimPdCmhhHR-42">
          <mxGeometry x="-0.1" relative="1" as="geometry">
            <mxPoint as="offset" />
          </mxGeometry>
        </mxCell>
        <mxCell id="S-kwV-OTgZimPdCmhhHR-44" value="" style="rounded=0;whiteSpace=wrap;html=1;rotation=2.86;" vertex="1" parent="1">
          <mxGeometry x="1020" y="260" width="600" height="10" as="geometry" />
        </mxCell>
        <mxCell id="S-kwV-OTgZimPdCmhhHR-45" value="" style="rounded=0;whiteSpace=wrap;html=1;" vertex="1" parent="1">
          <mxGeometry x="1428" y="275" width="12" height="310" as="geometry" />
        </mxCell>
        <mxCell id="S-kwV-OTgZimPdCmhhHR-63" value="" style="rounded=0;whiteSpace=wrap;html=1;fillColor=#000000;fontColor=#333333;strokeColor=#666666;fillStyle=solid;gradientColor=none;rotation=2.86;strokeWidth=0;" vertex="1" parent="1">
          <mxGeometry x="1020" y="237.38" width="4" height="7.62" as="geometry" />
        </mxCell>
        <mxCell id="S-kwV-OTgZimPdCmhhHR-72" value="" style="rounded=0;whiteSpace=wrap;html=1;direction=south;fillColor=#d5e8d4;strokeColor=#82b366;" vertex="1" parent="1">
          <mxGeometry x="350" y="650" width="4" height="500" as="geometry" />
        </mxCell>
        <mxCell id="S-kwV-OTgZimPdCmhhHR-73" value="" style="rounded=0;whiteSpace=wrap;html=1;direction=south;fillColor=#d5e8d4;strokeColor=#82b366;" vertex="1" parent="1">
          <mxGeometry x="480" y="650" width="4" height="500" as="geometry" />
        </mxCell>
        <mxCell id="S-kwV-OTgZimPdCmhhHR-74" value="" style="rounded=0;whiteSpace=wrap;html=1;direction=south;fillColor=#d5e8d4;strokeColor=#82b366;" vertex="1" parent="1">
          <mxGeometry x="610" y="650" width="4" height="500" as="geometry" />
        </mxCell>
        <mxCell id="S-kwV-OTgZimPdCmhhHR-75" value="" style="rounded=0;whiteSpace=wrap;html=1;direction=south;fillColor=#d5e8d4;strokeColor=#82b366;" vertex="1" parent="1">
          <mxGeometry x="880" y="650" width="5" height="500" as="geometry" />
        </mxCell>
        <mxCell id="S-kwV-OTgZimPdCmhhHR-106" value="" style="endArrow=baseDash;startArrow=baseDash;html=1;rounded=0;startFill=0;endFill=0;" edge="1" parent="1">
          <mxGeometry width="50" height="50" relative="1" as="geometry">
            <mxPoint x="350" y="640" as="sourcePoint" />
            <mxPoint x="480" y="640" as="targetPoint" />
          </mxGeometry>
        </mxCell>
        <mxCell id="S-kwV-OTgZimPdCmhhHR-116" value="1.3m" style="edgeLabel;html=1;align=center;verticalAlign=middle;resizable=0;points=[];" vertex="1" connectable="0" parent="S-kwV-OTgZimPdCmhhHR-106">
          <mxGeometry x="-0.2564" relative="1" as="geometry">
            <mxPoint as="offset" />
          </mxGeometry>
        </mxCell>
        <mxCell id="S-kwV-OTgZimPdCmhhHR-107" value="" style="endArrow=baseDash;startArrow=baseDash;html=1;rounded=0;startFill=0;endFill=0;" edge="1" parent="1">
          <mxGeometry width="50" height="50" relative="1" as="geometry">
            <mxPoint x="350" y="620" as="sourcePoint" />
            <mxPoint x="611" y="620" as="targetPoint" />
          </mxGeometry>
        </mxCell>
        <mxCell id="S-kwV-OTgZimPdCmhhHR-115" value="2.6m" style="edgeLabel;html=1;align=center;verticalAlign=middle;resizable=0;points=[];" vertex="1" connectable="0" parent="S-kwV-OTgZimPdCmhhHR-107">
          <mxGeometry x="0.1239" relative="1" as="geometry">
            <mxPoint as="offset" />
          </mxGeometry>
        </mxCell>
        <mxCell id="S-kwV-OTgZimPdCmhhHR-109" value="" style="endArrow=baseDash;startArrow=baseDash;html=1;rounded=0;startFill=0;endFill=0;" edge="1" parent="1">
          <mxGeometry width="50" height="50" relative="1" as="geometry">
            <mxPoint x="350" y="600" as="sourcePoint" />
            <mxPoint x="750" y="600" as="targetPoint" />
          </mxGeometry>
        </mxCell>
        <mxCell id="S-kwV-OTgZimPdCmhhHR-114" value="4m" style="edgeLabel;html=1;align=center;verticalAlign=middle;resizable=0;points=[];" vertex="1" connectable="0" parent="S-kwV-OTgZimPdCmhhHR-109">
          <mxGeometry x="-0.4375" y="1" relative="1" as="geometry">
            <mxPoint as="offset" />
          </mxGeometry>
        </mxCell>
        <mxCell id="S-kwV-OTgZimPdCmhhHR-110" value="" style="endArrow=baseDash;startArrow=baseDash;html=1;rounded=0;startFill=0;endFill=0;" edge="1" parent="1">
          <mxGeometry width="50" height="50" relative="1" as="geometry">
            <mxPoint x="350" y="580" as="sourcePoint" />
            <mxPoint x="881" y="580" as="targetPoint" />
          </mxGeometry>
        </mxCell>
        <mxCell id="S-kwV-OTgZimPdCmhhHR-117" value="5m" style="edgeLabel;html=1;align=center;verticalAlign=middle;resizable=0;points=[];" vertex="1" connectable="0" parent="S-kwV-OTgZimPdCmhhHR-110">
          <mxGeometry x="0.1653" relative="1" as="geometry">
            <mxPoint as="offset" />
          </mxGeometry>
        </mxCell>
        <mxCell id="S-kwV-OTgZimPdCmhhHR-111" value="" style="rounded=0;whiteSpace=wrap;html=1;direction=south;fillColor=#f5f5f5;fontColor=#333333;strokeColor=#666666;" vertex="1" parent="1">
          <mxGeometry x="750" y="815" width="5" height="155" as="geometry" />
        </mxCell>
        <mxCell id="S-kwV-OTgZimPdCmhhHR-112" value="" style="rounded=0;whiteSpace=wrap;html=1;direction=south;fillColor=#f5f5f5;fontColor=#333333;strokeColor=#666666;" vertex="1" parent="1">
          <mxGeometry x="750" y="975" width="5" height="175" as="geometry" />
        </mxCell>
        <mxCell id="S-kwV-OTgZimPdCmhhHR-118" value="7.5%" style="text;html=1;strokeColor=none;fillColor=none;align=center;verticalAlign=middle;whiteSpace=wrap;rounded=0;fontSize=9;" vertex="1" parent="1">
          <mxGeometry x="840" y="216.19" width="60" height="30" as="geometry" />
        </mxCell>
        <mxCell id="S-kwV-OTgZimPdCmhhHR-120" value="5%" style="text;html=1;strokeColor=none;fillColor=none;align=center;verticalAlign=middle;whiteSpace=wrap;rounded=0;fontSize=9;" vertex="1" parent="1">
          <mxGeometry x="470" y="207.38" width="60" height="30" as="geometry" />
        </mxCell>
        <mxCell id="S-kwV-OTgZimPdCmhhHR-121" value="" style="rounded=0;whiteSpace=wrap;html=1;fillColor=#000000;" vertex="1" parent="1">
          <mxGeometry x="750" y="252.38" width="4" height="7.62" as="geometry" />
        </mxCell>
        <mxCell id="S-kwV-OTgZimPdCmhhHR-123" value="" style="rounded=0;whiteSpace=wrap;html=1;fillColor=#000000;" vertex="1" parent="1">
          <mxGeometry x="1430" y="1015" width="12" height="300" as="geometry" />
        </mxCell>
        <mxCell id="S-kwV-OTgZimPdCmhhHR-133" value="" style="endArrow=baseDash;startArrow=baseDash;html=1;rounded=0;exitX=1.035;exitY=0.068;exitDx=0;exitDy=0;exitPerimeter=0;startFill=0;endFill=0;jumpSize=13;" edge="1" parent="1">
          <mxGeometry width="50" height="50" relative="1" as="geometry">
            <mxPoint x="1442" y="1067.16" as="sourcePoint" />
            <mxPoint x="1630" y="1067.5" as="targetPoint" />
          </mxGeometry>
        </mxCell>
        <mxCell id="S-kwV-OTgZimPdCmhhHR-178" value="1,8m" style="edgeLabel;html=1;align=center;verticalAlign=middle;resizable=0;points=[];" vertex="1" connectable="0" parent="S-kwV-OTgZimPdCmhhHR-133">
          <mxGeometry x="-0.2459" relative="1" as="geometry">
            <mxPoint as="offset" />
          </mxGeometry>
        </mxCell>
        <mxCell id="S-kwV-OTgZimPdCmhhHR-135" value="" style="rounded=0;whiteSpace=wrap;html=1;strokeColor=#000000;fillColor=#000000;rotation=0;" vertex="1" parent="1">
          <mxGeometry x="1032" y="1000" width="600" height="30" as="geometry" />
        </mxCell>
        <mxCell id="S-kwV-OTgZimPdCmhhHR-136" value="" style="rounded=0;whiteSpace=wrap;html=1;fillColor=#000000;" vertex="1" parent="1">
          <mxGeometry x="762" y="252.54" width="4" height="7.62" as="geometry" />
        </mxCell>
        <mxCell id="S-kwV-OTgZimPdCmhhHR-180" value="" style="rounded=0;whiteSpace=wrap;html=1;fillColor=#663300;" vertex="1" parent="1">
          <mxGeometry x="1060" y="1100" width="200" height="210" as="geometry" />
        </mxCell>
        <mxCell id="S-kwV-OTgZimPdCmhhHR-183" value="" style="rounded=0;whiteSpace=wrap;html=1;fillColor=#CCCCCC;" vertex="1" parent="1">
          <mxGeometry x="1030" y="1420" width="600" height="600" as="geometry" />
        </mxCell>
        <mxCell id="S-kwV-OTgZimPdCmhhHR-184" value="" style="rounded=0;whiteSpace=wrap;html=1;" vertex="1" parent="1">
          <mxGeometry x="1428" y="1800" width="200" height="180" as="geometry" />
        </mxCell>
        <mxCell id="S-kwV-OTgZimPdCmhhHR-185" value="" style="rounded=0;whiteSpace=wrap;html=1;fillColor=#000000;" vertex="1" parent="1">
          <mxGeometry x="1416" y="1710" width="12" height="310" as="geometry" />
        </mxCell>
        <mxCell id="S-kwV-OTgZimPdCmhhHR-186" value="" style="endArrow=baseDash;startArrow=baseDash;html=1;rounded=0;exitX=1.035;exitY=0.068;exitDx=0;exitDy=0;exitPerimeter=0;startFill=0;endFill=0;jumpSize=13;" edge="1" parent="1">
          <mxGeometry width="50" height="50" relative="1" as="geometry">
            <mxPoint x="1440" y="1772.16" as="sourcePoint" />
            <mxPoint x="1628" y="1772.5" as="targetPoint" />
          </mxGeometry>
        </mxCell>
        <mxCell id="S-kwV-OTgZimPdCmhhHR-187" value="2,0m" style="edgeLabel;html=1;align=center;verticalAlign=middle;resizable=0;points=[];" vertex="1" connectable="0" parent="S-kwV-OTgZimPdCmhhHR-186">
          <mxGeometry x="-0.2459" relative="1" as="geometry">
            <mxPoint as="offset" />
          </mxGeometry>
        </mxCell>
        <mxCell id="S-kwV-OTgZimPdCmhhHR-188" value="" style="rounded=0;whiteSpace=wrap;html=1;strokeColor=#000000;fillColor=#000000;rotation=3;" vertex="1" parent="1">
          <mxGeometry x="1030" y="1690" width="600" height="15" as="geometry" />
        </mxCell>
        <mxCell id="S-kwV-OTgZimPdCmhhHR-189" value="" style="rounded=0;whiteSpace=wrap;html=1;fillColor=#663300;" vertex="1" parent="1">
          <mxGeometry x="1058" y="1805" width="200" height="210" as="geometry" />
        </mxCell>
        <mxCell id="S-kwV-OTgZimPdCmhhHR-198" value="arctg()=5/10" style="text;html=1;strokeColor=none;fillColor=none;align=center;verticalAlign=middle;whiteSpace=wrap;rounded=0;" vertex="1" parent="1">
          <mxGeometry x="1150" y="2230" width="60" height="30" as="geometry" />
        </mxCell>
        <mxCell id="S-kwV-OTgZimPdCmhhHR-200" value="" style="endArrow=baseDash;html=1;rounded=0;startArrow=baseDash;startFill=0;endFill=0;" edge="1" parent="1">
          <mxGeometry width="50" height="50" relative="1" as="geometry">
            <mxPoint x="1000" y="2020" as="sourcePoint" />
            <mxPoint x="1000" y="1690" as="targetPoint" />
          </mxGeometry>
        </mxCell>
        <mxCell id="S-kwV-OTgZimPdCmhhHR-201" value="3,3m" style="edgeLabel;html=1;align=center;verticalAlign=middle;resizable=0;points=[];" vertex="1" connectable="0" parent="S-kwV-OTgZimPdCmhhHR-200">
          <mxGeometry x="-0.0035" y="-1" relative="1" as="geometry">
            <mxPoint as="offset" />
          </mxGeometry>
        </mxCell>
        <mxCell id="S-kwV-OTgZimPdCmhhHR-202" value="" style="endArrow=baseDash;html=1;rounded=0;startArrow=baseDash;startFill=0;endFill=0;" edge="1" parent="1">
          <mxGeometry width="50" height="50" relative="1" as="geometry">
            <mxPoint x="1660" y="2020" as="sourcePoint" />
            <mxPoint x="1660" y="1725" as="targetPoint" />
          </mxGeometry>
        </mxCell>
        <mxCell id="S-kwV-OTgZimPdCmhhHR-203" value="3,0m" style="edgeLabel;html=1;align=center;verticalAlign=middle;resizable=0;points=[];" vertex="1" connectable="0" parent="S-kwV-OTgZimPdCmhhHR-202">
          <mxGeometry x="-0.0035" y="-1" relative="1" as="geometry">
            <mxPoint as="offset" />
          </mxGeometry>
        </mxCell>
        <mxCell id="S-kwV-OTgZimPdCmhhHR-205" value="" style="rounded=0;whiteSpace=wrap;html=1;fillColor=#402000;" vertex="1" parent="1">
          <mxGeometry x="1058" y="1960" width="200" height="20" as="geometry" />
        </mxCell>
        <mxCell id="S-kwV-OTgZimPdCmhhHR-206" value="" style="rounded=0;whiteSpace=wrap;html=1;fillColor=#402000;" vertex="1" parent="1">
          <mxGeometry x="1058" y="1900" width="200" height="20" as="geometry" />
        </mxCell>
        <mxCell id="S-kwV-OTgZimPdCmhhHR-210" value="" style="rounded=0;whiteSpace=wrap;html=1;fillColor=#402000;" vertex="1" parent="1">
          <mxGeometry x="1058" y="1840" width="200" height="20" as="geometry" />
        </mxCell>
        <mxCell id="S-kwV-OTgZimPdCmhhHR-212" value="" style="endArrow=baseDash;html=1;rounded=0;startArrow=baseDash;startFill=0;endFill=0;" edge="1" parent="1">
          <mxGeometry width="50" height="50" relative="1" as="geometry">
            <mxPoint x="1390" y="2012.5" as="sourcePoint" />
            <mxPoint x="1390" y="1717.5" as="targetPoint" />
          </mxGeometry>
        </mxCell>
        <mxCell id="S-kwV-OTgZimPdCmhhHR-213" value="3,1m" style="edgeLabel;html=1;align=center;verticalAlign=middle;resizable=0;points=[];" vertex="1" connectable="0" parent="S-kwV-OTgZimPdCmhhHR-212">
          <mxGeometry x="-0.0035" y="-1" relative="1" as="geometry">
            <mxPoint as="offset" />
          </mxGeometry>
        </mxCell>
      </root>
    </mxGraphModel>
  </diagram>
</mxfile>
